<svg width="141" height="122" viewBox="0 0 141 122" fill="none" xmlns="http://www.w3.org/2000/svg">
<g id="Logo Icon">
<path d="M26.0727 100.964L0.584729 159.425C-1.42781 164.034 3.56883 168.576 8.16802 166.33L42.5641 149.522L28.5899 98.3009C27.4985 98.858 26.5963 99.77 26.0727 100.964Z" fill="#4169DE"/>
<path d="M79.7106 121.848L33.7503 98.3067C32.0595 97.4436 30.1416 97.511 28.5833 98.3067L42.5575 149.527L79.616 131.421C83.641 129.45 83.6978 123.893 79.7106 121.848Z" fill="#4169DE"/>
<path d="M201.599 160.166L179.126 114.197L160.402 151.535L194.205 167.321C198.905 169.519 203.838 164.751 201.599 160.166Z" fill="#122558"/>
<path d="M179.126 114.197L115.028 130.344L160.402 151.535L179.126 114.197Z" fill="#182D69"/>
<path d="M179.126 114.197C178.603 113.126 177.726 112.25 176.634 111.712L135.387 91.3102L115.022 130.344L179.126 114.197Z" fill="#1D3578"/>
<path d="M96.2529 71.956C95.1236 71.3929 94.2719 70.5115 93.7609 69.4709L115.016 130.344L135.381 91.3107L96.2529 71.956Z" fill="#223B85"/>
<path d="M93.7673 69.4709L115.022 130.344L73.2508 110.837L93.7673 69.4709Z" fill="#25408F"/>
<path d="M35.8512 93.3673C34.6525 92.8042 33.7567 91.8799 33.233 90.7904L93.7732 69.4709L73.2567 110.837L35.8512 93.3673Z" fill="#29469A"/>
<path d="M33.233 90.7904C32.5643 89.4009 32.5141 87.7417 33.2333 86.2421L50.526 50.2015L93.7735 69.4644L33.233 90.7904Z" fill="#2E4EAB"/>
<path d="M68.8912 11.9206L93.7673 69.4709L50.5197 50.2076L68.8912 11.9206Z" fill="#3253B3"/>
<path d="M93.7672 64.8551C93.1048 66.214 93.0732 67.7075 93.5716 69.0174L93.7673 69.4709C93.6979 69.324 93.6284 69.1704 93.5716 69.0174L68.8912 11.9206L110.114 31.4344L93.7672 64.8551Z" fill="#365AC0"/>
<path d="M68.8912 11.9206L125.539 -0.119316L110.107 31.4284L68.8912 11.9206Z" fill="#395EC8"/>
<path d="M68.8912 11.9206L125.539 -0.119316L84.2534 -20.1039L68.8912 11.9206Z" fill="#3D63D3"/>
<path d="M125.45 -4.91189L105.06 -42.9785C102.94 -46.9326 97.0731 -46.8102 95.1299 -42.7703L84.2534 -20.1104L125.539 -0.125259C126.29 -1.64327 126.252 -3.41224 125.45 -4.91189Z" fill="#4068DC"/>
</g>
</svg>
