<svg width="21" height="20" viewBox="0 0 21 20" fill="none" xmlns="http://www.w3.org/2000/svg">
<g id="vuesax/outline/note-text">
<g id="note-text">
<path id="Vector" d="M7.16675 4.79169C6.82508 4.79169 6.54175 4.50835 6.54175 4.16669V1.66669C6.54175 1.32502 6.82508 1.04169 7.16675 1.04169C7.50841 1.04169 7.79175 1.32502 7.79175 1.66669V4.16669C7.79175 4.50835 7.50841 4.79169 7.16675 4.79169Z" fill="#292D32"/>
<path id="Vector_2" d="M13.8333 4.79169C13.4916 4.79169 13.2083 4.50835 13.2083 4.16669V1.66669C13.2083 1.32502 13.4916 1.04169 13.8333 1.04169C14.1749 1.04169 14.4583 1.32502 14.4583 1.66669V4.16669C14.4583 4.50835 14.1749 4.79169 13.8333 4.79169Z" fill="#292D32"/>
<path id="Vector_3" d="M13.8333 18.9584H7.16667C4.125 18.9584 2.375 17.2084 2.375 14.1667V7.08335C2.375 4.04169 4.125 2.29169 7.16667 2.29169H13.8333C16.875 2.29169 18.625 4.04169 18.625 7.08335V14.1667C18.625 17.2084 16.875 18.9584 13.8333 18.9584ZM7.16667 3.54169C4.78333 3.54169 3.625 4.70002 3.625 7.08335V14.1667C3.625 16.55 4.78333 17.7084 7.16667 17.7084H13.8333C16.2167 17.7084 17.375 16.55 17.375 14.1667V7.08335C17.375 4.70002 16.2167 3.54169 13.8333 3.54169H7.16667Z" fill="#292D32"/>
<path id="Vector_4" d="M13.8334 9.79169H7.16675C6.82508 9.79169 6.54175 9.50835 6.54175 9.16669C6.54175 8.82502 6.82508 8.54169 7.16675 8.54169H13.8334C14.1751 8.54169 14.4584 8.82502 14.4584 9.16669C14.4584 9.50835 14.1751 9.79169 13.8334 9.79169Z" fill="#292D32"/>
<path id="Vector_5" d="M10.5001 13.9583H7.16675C6.82508 13.9583 6.54175 13.675 6.54175 13.3333C6.54175 12.9916 6.82508 12.7083 7.16675 12.7083H10.5001C10.8417 12.7083 11.1251 12.9916 11.1251 13.3333C11.1251 13.675 10.8417 13.9583 10.5001 13.9583Z" fill="#292D32"/>
</g>
</g>
</svg>
