<svg width="14" height="18" viewBox="0 0 14 18" fill="none" xmlns="http://www.w3.org/2000/svg">
<g id="Profile">
<path id="Profile_2" fill-rule="evenodd" clip-rule="evenodd" d="M7.0035 0.666664C4.55848 0.666664 2.5764 2.6572 2.5764 5.11264C2.5764 7.56809 4.55848 9.55862 7.0035 9.55862C9.44852 9.55862 11.4306 7.56809 11.4306 5.11264C11.4306 2.6572 9.44852 0.666664 7.0035 0.666664ZM7.0035 1.87305C8.78508 1.87305 10.2293 3.32347 10.2293 5.11264C10.2293 6.90182 8.78508 8.35223 7.0035 8.35223C5.22192 8.35223 3.77766 6.90182 3.77766 5.11264C3.77766 3.32347 5.22192 1.87305 7.0035 1.87305ZM5.19163 11.3507C4.54353 11.3957 3.88843 11.4882 3.24225 11.6267C1.99506 11.8836 0.997296 12.3969 0.572618 13.2499C0.412441 13.5835 0.33191 13.9407 0.333269 14.3023C0.332788 14.6613 0.412668 15.0189 0.5671 15.3461C0.974871 16.1892 1.85642 16.6664 3.04679 16.9309L3.26002 16.9754C3.88866 17.1172 4.54395 17.2127 5.20364 17.2575C5.25982 17.274 5.39373 17.2893 5.53989 17.2968L5.6601 17.3013C5.72191 17.3027 5.79207 17.3031 5.89659 17.3031C6.84479 17.3552 7.82777 17.34 8.80618 17.2568C9.32758 17.2211 9.8525 17.1529 10.373 17.053L10.7625 16.9721C12.0479 16.7186 13.0104 16.2363 13.4321 15.347C13.7447 14.6868 13.7447 13.9206 13.4322 13.2606C13.0116 12.3735 12.0613 11.8953 10.7527 11.6257C10.2393 11.5161 9.71759 11.435 9.19214 11.3832L8.808 11.3507C7.60486 11.2446 6.39477 11.2446 5.19163 11.3507ZM8.70288 12.5525L8.71345 12.5533C9.31649 12.5958 9.91584 12.6804 10.5071 12.8067C11.4792 13.0069 12.1388 13.3389 12.3475 13.779C12.5046 14.1109 12.5046 14.4965 12.3474 14.8286C12.1524 15.2399 11.5599 15.5576 10.7036 15.7518L10.5162 15.7915C9.91324 15.926 9.31587 16.0127 8.71455 16.0539C7.78153 16.1333 6.85404 16.1476 5.92889 16.0976L5.60089 16.0919C5.50983 16.0873 5.43309 16.0785 5.36198 16.0642C4.79885 16.0217 4.29214 15.9545 3.80014 15.857L3.50637 15.7948C2.53134 15.6037 1.86587 15.2702 1.65011 14.8241C1.57462 14.6641 1.53429 14.4836 1.53453 14.3008C1.53385 14.119 1.57365 13.9425 1.6509 13.7816C1.86069 13.3603 2.56591 12.9975 3.48829 12.8075C4.08386 12.6799 4.68293 12.5953 5.2857 12.5534C6.42994 12.4525 7.56968 12.4525 8.70288 12.5525Z" fill="#142452"/>
</g>
</svg>
